<svg width="152" height="24" viewBox="0 0 152 24" fill="none" xmlns="http://www.w3.org/2000/svg">
<path d="M37.8308 15.72V18.984H26.8514V3.79196H30.6704V15.72H37.8308Z" fill="#393939"/>
<path d="M43.4464 7.17596C44.974 7.17596 46.2072 7.33596 47.146 7.65596C48.0848 7.97596 48.769 8.56796 49.1986 9.43196C49.6442 10.28 49.867 11.512 49.867 13.128V18.984H46.4061L46.2867 17.88H46.2151C45.9128 18.28 45.4434 18.6 44.8069 18.84C44.1704 19.08 43.343 19.2 42.3246 19.2C39.5718 19.2 38.1954 17.904 38.1954 15.312C38.1954 14.208 38.5534 13.344 39.2695 12.72C40.0014 12.08 41.1471 11.76 42.7065 11.76H46.239C46.1276 11.088 45.8412 10.64 45.3797 10.416C44.9183 10.176 44.1306 10.056 43.0168 10.056C42.3166 10.056 41.6245 10.112 40.9402 10.224C40.2719 10.32 39.6832 10.432 39.174 10.56L39.1024 10.512L39.1262 7.72796C39.4445 7.63196 39.8503 7.54396 40.3435 7.46396C40.8368 7.36796 41.3539 7.29596 41.895 7.24796C42.4519 7.19996 42.969 7.17596 43.4464 7.17596ZM43.3032 16.368C44.2897 16.368 45.0297 16.248 45.5229 16.008C46.0162 15.752 46.2708 15.352 46.2867 14.808V14.208H43.5896C42.8895 14.208 42.3962 14.312 42.1098 14.52C41.8393 14.712 41.704 14.976 41.704 15.312C41.704 15.712 41.8472 15.992 42.1336 16.152C42.4201 16.296 42.8099 16.368 43.3032 16.368Z" fill="#393939"/>
<path d="M55.705 19.2C54.2411 19.2 53.1988 18.808 52.5782 18.024C51.9577 17.24 51.6474 16.12 51.6474 14.664V7.29596H55.4663L55.4902 13.728C55.4902 14.448 55.6175 14.96 55.8721 15.264C56.1267 15.552 56.6438 15.696 57.4235 15.696C58.1714 15.696 58.6726 15.568 58.9272 15.312C59.1977 15.04 59.3409 14.584 59.3568 13.944V7.29596H63.1757V18.984H59.5478L59.3568 17.664H59.2852C59.0784 18.128 58.6567 18.504 58.0202 18.792C57.3837 19.064 56.612 19.2 55.705 19.2Z" fill="#393939"/>
<path d="M69.3761 18.984H65.5572V7.29596H69.1851L69.3761 9.43196H69.4477C69.6704 8.71196 70.0683 8.15996 70.6411 7.77596C71.2139 7.37596 72.0095 7.17596 73.0279 7.17596C74.4123 7.17596 75.4307 7.56796 76.0831 8.35196C76.7514 9.13596 77.0855 10.496 77.0855 12.432V18.984H73.2666L73.2427 13.176C73.2427 12.28 73.1075 11.64 72.837 11.256C72.5665 10.872 72.0573 10.68 71.3094 10.68C70.6093 10.68 70.116 10.856 69.8296 11.208C69.5432 11.544 69.392 12.128 69.3761 12.96V18.984Z" fill="#393939"/>
<path d="M88.2743 15.6V18.72C87.8765 18.88 87.2878 19 86.5081 19.08C85.7284 19.16 84.9009 19.2 84.0258 19.2C82.7687 19.2 81.7185 19.024 80.8752 18.672C80.0477 18.32 79.4272 17.712 79.0134 16.848C78.6156 15.984 78.4088 14.784 78.3929 13.248C78.3929 11.664 78.6077 10.432 79.0373 9.55196C79.4829 8.67196 80.1273 8.05596 80.9706 7.70396C81.814 7.35196 82.8244 7.17596 84.0019 7.17596C84.702 7.17596 85.442 7.22396 86.2217 7.31996C87.0014 7.41596 87.6378 7.54396 88.1311 7.70396L88.155 10.92L88.0834 10.968C87.606 10.872 87.0968 10.8 86.5558 10.752C86.0148 10.704 85.4817 10.68 84.9566 10.68C83.8905 10.68 83.1506 10.88 82.7369 11.28C82.3232 11.68 82.1163 12.352 82.1163 13.296C82.1163 14.016 82.2038 14.552 82.3789 14.904C82.5539 15.256 82.8483 15.488 83.262 15.6C83.6757 15.712 84.2406 15.768 84.9566 15.768C85.5136 15.768 86.0466 15.744 86.5558 15.696C87.065 15.648 87.606 15.592 88.1788 15.528L88.2743 15.6Z" fill="#393939"/>
<path d="M93.758 18.984H89.9391V2.85596H93.758V9.43196H93.8297C94.0524 8.71196 94.4582 8.15996 95.0469 7.77596C95.6516 7.37596 96.4392 7.17596 97.4099 7.17596C98.3328 7.17596 99.0886 7.32796 99.6774 7.63196C100.282 7.93596 100.728 8.47196 101.014 9.23996C101.316 9.99196 101.467 11.056 101.467 12.432V18.984H97.6486L97.6247 13.176C97.6247 12.28 97.4894 11.64 97.2189 11.256C96.9484 10.872 96.4392 10.68 95.6914 10.68C95.0231 10.68 94.5377 10.856 94.2354 11.208C93.9331 11.56 93.774 12.152 93.758 12.984V18.984Z" fill="#393939"/>
<path d="M113.827 18.6C113.381 18.76 112.761 18.904 111.965 19.032C111.185 19.144 110.254 19.2 109.172 19.2C107.804 19.2 106.634 19.024 105.664 18.672C104.709 18.304 103.985 17.688 103.492 16.824C102.998 15.944 102.752 14.728 102.752 13.176C102.752 11.064 103.229 9.53603 104.184 8.59203C105.155 7.64803 106.65 7.17603 108.671 7.17603C110.119 7.17603 111.257 7.38403 112.084 7.80003C112.928 8.21603 113.524 8.80803 113.874 9.57603C114.24 10.328 114.423 11.224 114.423 12.264C114.423 12.568 114.407 12.896 114.376 13.248C114.36 13.6 114.32 13.944 114.256 14.28L114.161 14.376H106.308C106.42 15.08 106.746 15.544 107.287 15.768C107.844 15.992 108.743 16.104 109.984 16.104C110.811 16.104 111.496 16.088 112.037 16.056C112.594 16.008 113.158 15.944 113.731 15.864L113.827 15.936V18.6ZM111.106 11.856C111.106 11.472 111.042 11.144 110.915 10.872C110.803 10.584 110.573 10.368 110.223 10.224C109.873 10.064 109.355 9.98403 108.671 9.98403C107.669 9.98403 107.008 10.16 106.69 10.512C106.388 10.848 106.237 11.296 106.237 11.856H111.106Z" fill="#4589FF"/>
<path d="M120.392 7.17603C121.92 7.17603 123.153 7.33602 124.092 7.65602C125.03 7.97602 125.715 8.56802 126.144 9.43203C126.59 10.28 126.813 11.512 126.813 13.128V18.984H123.352L123.232 17.88H123.161C122.858 18.28 122.389 18.6 121.752 18.84C121.116 19.08 120.289 19.2 119.27 19.2C116.517 19.2 115.141 17.904 115.141 15.312C115.141 14.208 115.499 13.344 116.215 12.72C116.947 12.08 118.093 11.76 119.652 11.76H123.185C123.073 11.088 122.787 10.64 122.325 10.416C121.864 10.176 121.076 10.056 119.962 10.056C119.262 10.056 118.57 10.112 117.886 10.224C117.217 10.32 116.629 10.432 116.12 10.56L116.048 10.512L116.072 7.72803C116.39 7.63203 116.796 7.54402 117.289 7.46403C117.782 7.36802 118.3 7.29602 118.841 7.24802C119.397 7.20002 119.915 7.17603 120.392 7.17603ZM120.249 16.368C121.235 16.368 121.975 16.248 122.468 16.008C122.962 15.752 123.216 15.352 123.232 14.808V14.208H120.535C119.835 14.208 119.342 14.312 119.055 14.52C118.785 14.712 118.65 14.976 118.65 15.312C118.65 15.712 118.793 15.992 119.079 16.152C119.366 16.296 119.755 16.368 120.249 16.368Z" fill="#4589FF"/>
<path d="M133.748 10.416H128.569V7.32003H138.761V10.08L133.605 15.792V15.84H139.143V18.936H128.187V16.416L133.748 10.464V10.416Z" fill="#4589FF"/>
<path d="M141.951 23.4L143.789 19.008L139.183 7.34403V7.29603H143.455C143.901 8.56003 144.314 9.83203 144.696 11.112C145.094 12.392 145.412 13.704 145.651 15.048H145.699C145.937 13.72 146.24 12.416 146.606 11.136C146.988 9.85603 147.417 8.57603 147.895 7.29603H152V7.36803L145.866 23.448H141.951V23.4Z" fill="#4589FF"/>
<path d="M12.513 9.6001H1.81157C0.200865 9.6001 -0.605783 11.5583 0.533158 12.7035L11.2346 23.464C12.3735 24.6092 14.3209 23.7981 14.3209 22.1785V11.418C14.3209 10.414 13.5115 9.6001 12.513 9.6001Z" fill="#D2E4F9"/>
<path d="M14.3209 9.6001H1.79004L14.3209 22.2001V9.6001Z" fill="#BCD6F5"/>
<path d="M14.303 4.80005H3.60161C1.9909 4.80005 1.18426 6.75821 2.3232 7.90344L13.0246 18.6639C14.1636 19.8092 16.111 18.9981 16.111 17.3785V6.61797C16.111 5.61396 15.3015 4.80005 14.303 4.80005Z" fill="#79AEEC"/>
<path d="M16.1109 4.80005H3.58008L16.1109 17.4V4.80005Z" fill="#63A0E9"/>
<path d="M16.0931 0H5.39171C3.781 0 2.97436 1.95816 4.1133 3.10339L14.8147 13.8639C15.9537 15.0091 17.9011 14.198 17.9011 12.5784V1.81792C17.9011 0.813912 17.0916 0 16.0931 0Z" fill="#2077DF"/>
</svg>
