<svg width="203" height="32" viewBox="0 0 203 32" fill="none" xmlns="http://www.w3.org/2000/svg">
<path d="M50.4411 20.96V25.312H35.8019V5.05598H40.8938V20.96H50.4411Z" fill="white"/>
<path d="M57.9286 9.56798C59.9653 9.56798 61.6096 9.78132 62.8613 10.208C64.1131 10.6347 65.0254 11.424 65.5982 12.576C66.1923 13.7067 66.4893 15.3493 66.4893 17.504V25.312H61.8748L61.7156 23.84H61.6202C61.2171 24.3733 60.5912 24.8 59.7425 25.12C58.8939 25.44 57.7906 25.6 56.4328 25.6C52.7624 25.6 50.9272 23.872 50.9272 20.416C50.9272 18.944 51.4046 17.792 52.3593 16.96C53.3352 16.1067 54.8628 15.68 56.942 15.68H61.652C61.5035 14.784 61.1216 14.1867 60.5063 13.888C59.8911 13.568 58.8408 13.408 57.3557 13.408C56.4222 13.408 55.4993 13.4827 54.587 13.632C53.6959 13.76 52.9109 13.9093 52.232 14.08L52.1365 14.016L52.1683 10.304C52.5927 10.176 53.1337 10.0587 53.7914 9.95198C54.4491 9.82398 55.1386 9.72798 55.86 9.66398C56.6025 9.59998 57.2921 9.56798 57.9286 9.56798ZM57.7376 21.824C59.053 21.824 60.0396 21.664 60.6973 21.344C61.355 21.0027 61.6944 20.4693 61.7156 19.744V18.944H58.1195C57.186 18.944 56.5283 19.0827 56.1464 19.36C55.7857 19.616 55.6054 19.968 55.6054 20.416C55.6054 20.9493 55.7963 21.3227 56.1782 21.536C56.5601 21.728 57.0799 21.824 57.7376 21.824Z" fill="white"/>
<path d="M74.2733 25.6C72.3214 25.6 70.9318 25.0773 70.1043 24.032C69.2769 22.9867 68.8632 21.4933 68.8632 19.552V9.72799H73.9551L73.9869 18.304C73.9869 19.264 74.1566 19.9467 74.4961 20.352C74.8356 20.736 75.5251 20.928 76.5647 20.928C77.5618 20.928 78.2301 20.7573 78.5696 20.416C78.9303 20.0533 79.1212 19.4453 79.1424 18.592V9.72799H84.2343V25.312H79.397L79.1424 23.552H79.047C78.7712 24.1707 78.2089 24.672 77.3603 25.056C76.5116 25.4187 75.4826 25.6 74.2733 25.6Z" fill="white"/>
<path d="M92.5015 25.312H87.4096V9.72799H92.2469L92.5015 12.576H92.5969C92.894 11.616 93.4244 10.88 94.1881 10.368C94.9519 9.83465 96.0127 9.56798 97.3706 9.56798C99.2164 9.56798 100.574 10.0907 101.444 11.136C102.335 12.1813 102.781 13.9947 102.781 16.576V25.312H97.6888L97.657 17.568C97.657 16.3733 97.4767 15.52 97.116 15.008C96.7553 14.496 96.0764 14.24 95.0792 14.24C94.1457 14.24 93.488 14.4747 93.1061 14.944C92.7242 15.392 92.5227 16.1707 92.5015 17.28V25.312Z" fill="white"/>
<path d="M117.699 20.8V24.96C117.169 25.1733 116.384 25.3333 115.344 25.44C114.305 25.5467 113.201 25.6 112.034 25.6C110.358 25.6 108.958 25.3653 107.834 24.896C106.73 24.4267 105.903 23.616 105.351 22.464C104.821 21.312 104.545 19.712 104.524 17.664C104.524 15.552 104.81 13.9093 105.383 12.736C105.977 11.5627 106.836 10.7413 107.961 10.272C109.085 9.80265 110.433 9.56798 112.003 9.56798C112.936 9.56798 113.923 9.63198 114.962 9.75998C116.002 9.88798 116.85 10.0587 117.508 10.272L117.54 14.56L117.445 14.624C116.808 14.496 116.129 14.4 115.408 14.336C114.686 14.272 113.976 14.24 113.276 14.24C111.854 14.24 110.867 14.5067 110.316 15.04C109.764 15.5733 109.488 16.4693 109.488 17.728C109.488 18.688 109.605 19.4027 109.839 19.872C110.072 20.3413 110.464 20.6507 111.016 20.8C111.568 20.9493 112.321 21.024 113.276 21.024C114.018 21.024 114.729 20.992 115.408 20.928C116.087 20.864 116.808 20.7893 117.572 20.704L117.699 20.8Z" fill="white"/>
<path d="M125.011 25.312H119.919V3.80798H125.011V12.576H125.106C125.403 11.616 125.944 10.88 126.729 10.368C127.535 9.83465 128.586 9.56798 129.88 9.56798C131.11 9.56798 132.118 9.77065 132.903 10.176C133.709 10.5813 134.303 11.296 134.685 12.32C135.088 13.3227 135.29 14.7413 135.29 16.576V25.312H130.198L130.166 17.568C130.166 16.3733 129.986 15.52 129.625 15.008C129.265 14.496 128.586 14.24 127.589 14.24C126.697 14.24 126.05 14.4747 125.647 14.944C125.244 15.4133 125.032 16.2027 125.011 17.312V25.312Z" fill="white"/>
<path d="M151.769 24.8C151.175 25.0133 150.347 25.2053 149.287 25.376C148.247 25.5253 147.006 25.6 145.563 25.6C143.739 25.6 142.179 25.3653 140.885 24.896C139.612 24.4053 138.647 23.584 137.989 22.432C137.331 21.2587 137.002 19.6373 137.002 17.568C137.002 14.752 137.639 12.7147 138.912 11.456C140.206 10.1973 142.2 9.56799 144.895 9.56799C146.826 9.56799 148.343 9.84533 149.446 10.4C150.57 10.9547 151.366 11.744 151.833 12.768C152.321 13.7707 152.565 14.9653 152.565 16.352C152.565 16.7573 152.543 17.1947 152.501 17.664C152.48 18.1333 152.427 18.592 152.342 19.04L152.214 19.168H141.744C141.893 20.1067 142.328 20.7253 143.049 21.024C143.792 21.3227 144.99 21.472 146.645 21.472C147.748 21.472 148.661 21.4507 149.382 21.408C150.125 21.344 150.878 21.2587 151.642 21.152L151.769 21.248V24.8ZM148.141 15.808C148.141 15.296 148.056 14.8587 147.886 14.496C147.738 14.112 147.43 13.824 146.963 13.632C146.497 13.4187 145.807 13.312 144.895 13.312C143.558 13.312 142.678 13.5467 142.253 14.016C141.85 14.464 141.649 15.0613 141.649 15.808H148.141Z" fill="#2196F3"/>
<path d="M160.523 9.56799C162.559 9.56799 164.204 9.78133 165.455 10.208C166.707 10.6347 167.619 11.424 168.192 12.576C168.786 13.7067 169.083 15.3493 169.083 17.504V25.312H164.469L164.31 23.84H164.214C163.811 24.3733 163.185 24.8 162.337 25.12C161.488 25.44 160.385 25.6 159.027 25.6C155.356 25.6 153.521 23.872 153.521 20.416C153.521 18.944 153.999 17.792 154.953 16.96C155.929 16.1067 157.457 15.68 159.536 15.68H164.246C164.098 14.784 163.716 14.1867 163.1 13.888C162.485 13.568 161.435 13.408 159.95 13.408C159.016 13.408 158.093 13.4827 157.181 13.632C156.29 13.76 155.505 13.9093 154.826 14.08L154.731 14.016L154.762 10.304C155.187 10.176 155.728 10.0587 156.385 9.95199C157.043 9.82399 157.733 9.72799 158.454 9.66399C159.197 9.59999 159.886 9.56799 160.523 9.56799ZM160.332 21.824C161.647 21.824 162.634 21.664 163.291 21.344C163.949 21.0027 164.288 20.4693 164.31 19.744V18.944H160.714C159.78 18.944 159.122 19.0827 158.74 19.36C158.38 19.616 158.199 19.968 158.199 20.416C158.199 20.9493 158.39 21.3227 158.772 21.536C159.154 21.728 159.674 21.824 160.332 21.824Z" fill="#2196F3"/>
<path d="M178.331 13.888H171.425V9.75999H185.014V13.44L178.14 21.056V21.12H185.524V25.248H170.916V21.888L178.331 13.952V13.888Z" fill="#2196F3"/>
<path d="M189.268 31.2L191.719 25.344L185.577 9.79199V9.72799H191.273C191.867 11.4133 192.419 13.1093 192.928 14.816C193.459 16.5227 193.883 18.272 194.201 20.064H194.265C194.583 18.2933 194.986 16.5547 195.474 14.848C195.983 13.1413 196.556 11.4347 197.193 9.72799H202.666V9.82399L194.488 31.264H189.268V31.2Z" fill="#2196F3"/>
<path d="M16.684 12.8H2.41543C0.267819 12.8 -0.80771 15.4109 0.710877 16.9379L14.9795 31.2852C16.498 32.8122 19.0946 31.7308 19.0946 29.5713V15.2239C19.0946 13.8853 18.0153 12.8 16.684 12.8Z" fill="#D2E4F9"/>
<path d="M19.0945 12.8H2.38672L19.0945 29.6V12.8Z" fill="#BCD6F5"/>
<path d="M19.0707 6.3999H4.80215C2.65454 6.3999 1.57901 9.01078 3.0976 10.5378L17.3662 24.8851C18.8848 26.4121 21.4813 25.3306 21.4813 23.1711V8.8238C21.4813 7.48512 20.4021 6.3999 19.0707 6.3999Z" fill="#79AEEC"/>
<path d="M21.4812 6.3999H4.77344L21.4812 23.1999V6.3999Z" fill="#63A0E9"/>
<path d="M21.4575 0H7.18893C5.04132 0 3.96579 2.61088 5.48438 4.13785L19.753 18.4852C21.2715 20.0122 23.8681 18.9307 23.8681 16.7712V2.4239C23.8681 1.08522 22.7888 0 21.4575 0Z" fill="#2077DF"/>
</svg>
